<svg viewBox="0 0 1310 970" xmlns="http://www.w3.org/2000/svg" font-family="Helvetica, Arial, sans-serif">
<rect x="0" y="0" width="1310" height="970" fill="#ffffff"/>
<text x="40" y="36" font-size="17" font-weight="bold" fill="#111">Entity Relationship Diagram — Parzello POS</text>
<path d="M 137.1 315.0 L 137.1 302.0 L 188.4 302.0 L 188.4 289.0" fill="none" stroke="#000" stroke-width="1.2"/>
<path d="M 137.1 517.0 L 137.1 533.0 L 201.7 533.0 L 201.7 549.0" fill="none" stroke="#000" stroke-width="1.2"/>
<path d="M 234.3 380.0 L 430.0 380.0 L 430.0 174.0 L 454.0 174.0" fill="none" stroke="#000" stroke-width="1.2"/>
<path d="M 234.3 464.0 L 454.0 464.0" fill="none" stroke="#000" stroke-width="1.2"/>
<path d="M 234.3 492.0 L 430.0 492.0 L 430.0 774.5 L 454.0 774.5" fill="none" stroke="#000" stroke-width="1.2"/>
<path d="M 234.3 350.0 L 410.0 350.0 L 410.0 55.0 L 1088.7 55.0 L 1088.7 119.0" fill="none" stroke="#000" stroke-width="1.2"/>
<path d="M 609.7 263.0 L 609.7 276.0 L 622.1 276.0 L 622.1 289.0" fill="none" stroke="#000" stroke-width="1.2"/>
<path d="M 622.1 613.0 L 622.1 621.0 L 649.1 621.0 L 649.1 629.0" fill="none" stroke="#000" stroke-width="1.2"/>
<path d="M 764.1 520.0 L 875.0 520.0 L 875.0 620.0 L 894.0 620.0" fill="none" stroke="#000" stroke-width="1.2"/>
<path d="M 1088.7 480.0 L 1088.7 499.5 L 1017.7 499.5 L 1017.7 519.0" fill="none" stroke="#000" stroke-width="1.2"/>
<rect x="40" y="315" width="194.3" height="202" rx="3" fill="#ffffff" stroke="#000" stroke-width="1.3"/><rect x="40" y="315" width="194.3" height="34" rx="3" fill="#e9e9e9" stroke="#000" stroke-width="1.3"/><rect x="40" y="346" width="194.3" height="3" fill="#e9e9e9"/><line x1="40" y1="349" x2="234.3" y2="349" stroke="#000" stroke-width="1.3"/><text x="137.1" y="337.0" text-anchor="middle" font-size="12.5" font-weight="bold" fill="#111">STORES</text><text x="62.0" y="365.0" text-anchor="middle" font-size="9" font-weight="bold" fill="#1a1a1a">PK</text><text x="84.0" y="365.0" font-size="11" fill="#1a1a1a">id</text><text x="157.6" y="365.0" font-size="10.5" fill="#6a6a6a">uuid</text><line x1="40" y1="373" x2="234.3" y2="373" stroke="#d2d2d2" stroke-width="0.8"/><text x="84.0" y="389.0" font-size="11" fill="#1a1a1a">name</text><text x="157.6" y="389.0" font-size="10.5" fill="#6a6a6a">varchar</text><line x1="40" y1="397" x2="234.3" y2="397" stroke="#d2d2d2" stroke-width="0.8"/><text x="84.0" y="413.0" font-size="11" fill="#1a1a1a">address</text><text x="157.6" y="413.0" font-size="10.5" fill="#6a6a6a">text</text><line x1="40" y1="421" x2="234.3" y2="421" stroke="#d2d2d2" stroke-width="0.8"/><text x="84.0" y="437.0" font-size="11" fill="#1a1a1a">phone</text><text x="157.6" y="437.0" font-size="10.5" fill="#6a6a6a">varchar</text><line x1="40" y1="445" x2="234.3" y2="445" stroke="#d2d2d2" stroke-width="0.8"/><text x="84.0" y="461.0" font-size="11" fill="#1a1a1a">logo_url</text><text x="157.6" y="461.0" font-size="10.5" fill="#6a6a6a">text</text><line x1="40" y1="469" x2="234.3" y2="469" stroke="#d2d2d2" stroke-width="0.8"/><text x="84.0" y="485.0" font-size="11" fill="#1a1a1a">settings</text><text x="157.6" y="485.0" font-size="10.5" fill="#6a6a6a">jsonb</text><line x1="40" y1="493" x2="234.3" y2="493" stroke="#d2d2d2" stroke-width="0.8"/><text x="84.0" y="509.0" font-size="11" fill="#1a1a1a">created_at</text><text x="157.6" y="509.0" font-size="10.5" fill="#6a6a6a">timestamptz</text><line x1="80.0" y1="349" x2="80.0" y2="517" stroke="#d2d2d2" stroke-width="0.8"/>
<rect x="40" y="85" width="296.7" height="178" rx="3" fill="#ffffff" stroke="#000" stroke-width="1.3"/><rect x="40" y="85" width="296.7" height="34" rx="3" fill="#e9e9e9" stroke="#000" stroke-width="1.3"/><rect x="40" y="116" width="296.7" height="3" fill="#e9e9e9"/><line x1="40" y1="119" x2="336.7" y2="119" stroke="#000" stroke-width="1.3"/><text x="188.4" y="107.0" text-anchor="middle" font-size="12.5" font-weight="bold" fill="#111">STORE_MEMBERS</text><text x="62.0" y="135.0" text-anchor="middle" font-size="9" font-weight="bold" fill="#1a1a1a">PK</text><text x="84.0" y="135.0" font-size="11" fill="#1a1a1a">id</text><text x="157.6" y="135.0" font-size="10.5" fill="#6a6a6a">uuid</text><line x1="40" y1="143" x2="336.7" y2="143" stroke="#d2d2d2" stroke-width="0.8"/><text x="62.0" y="159.0" text-anchor="middle" font-size="9" fill="#555">FK</text><text x="84.0" y="159.0" font-size="11" fill="#1a1a1a">store_id</text><text x="157.6" y="159.0" font-size="10.5" fill="#6a6a6a">uuid</text><line x1="40" y1="167" x2="336.7" y2="167" stroke="#d2d2d2" stroke-width="0.8"/><text x="62.0" y="183.0" text-anchor="middle" font-size="9" fill="#555">FK</text><text x="84.0" y="183.0" font-size="11" fill="#1a1a1a">user_id</text><text x="157.6" y="183.0" font-size="10.5" fill="#6a6a6a">uuid</text><line x1="40" y1="191" x2="336.7" y2="191" stroke="#d2d2d2" stroke-width="0.8"/><text x="84.0" y="207.0" font-size="11" fill="#1a1a1a">role</text><text x="157.6" y="207.0" font-size="10.5" fill="#6a6a6a">varchar</text><text x="234.3" y="207.0" font-size="9.5" font-style="italic" fill="#8a8a8a">owner, karyawan</text><line x1="40" y1="215" x2="336.7" y2="215" stroke="#d2d2d2" stroke-width="0.8"/><text x="84.0" y="231.0" font-size="11" fill="#1a1a1a">status</text><text x="157.6" y="231.0" font-size="10.5" fill="#6a6a6a">varchar</text><text x="234.3" y="231.0" font-size="9.5" font-style="italic" fill="#8a8a8a">active, suspended</text><line x1="40" y1="239" x2="336.7" y2="239" stroke="#d2d2d2" stroke-width="0.8"/><text x="84.0" y="255.0" font-size="11" fill="#1a1a1a">created_at</text><text x="157.6" y="255.0" font-size="10.5" fill="#6a6a6a">timestamptz</text><line x1="80.0" y1="119" x2="80.0" y2="263" stroke="#d2d2d2" stroke-width="0.8"/>
<rect x="480" y="85" width="259.5" height="178" rx="3" fill="#ffffff" stroke="#000" stroke-width="1.3"/><rect x="480" y="85" width="259.5" height="34" rx="3" fill="#e9e9e9" stroke="#000" stroke-width="1.3"/><rect x="480" y="116" width="259.5" height="3" fill="#e9e9e9"/><line x1="480" y1="119" x2="739.5" y2="119" stroke="#000" stroke-width="1.3"/><text x="609.7" y="107.0" text-anchor="middle" font-size="12.5" font-weight="bold" fill="#111">CATEGORIES</text><text x="502.0" y="135.0" text-anchor="middle" font-size="9" font-weight="bold" fill="#1a1a1a">PK</text><text x="524.0" y="135.0" font-size="11" fill="#1a1a1a">id</text><text x="597.6" y="135.0" font-size="10.5" fill="#6a6a6a">uuid</text><line x1="480" y1="143" x2="739.5" y2="143" stroke="#d2d2d2" stroke-width="0.8"/><text x="502.0" y="159.0" text-anchor="middle" font-size="9" fill="#555">FK</text><text x="524.0" y="159.0" font-size="11" fill="#1a1a1a">store_id</text><text x="597.6" y="159.0" font-size="10.5" fill="#6a6a6a">uuid</text><line x1="480" y1="167" x2="739.5" y2="167" stroke="#d2d2d2" stroke-width="0.8"/><text x="524.0" y="183.0" font-size="11" fill="#1a1a1a">name</text><text x="597.6" y="183.0" font-size="10.5" fill="#6a6a6a">varchar</text><line x1="480" y1="191" x2="739.5" y2="191" stroke="#d2d2d2" stroke-width="0.8"/><text x="524.0" y="207.0" font-size="11" fill="#1a1a1a">is_synced</text><text x="597.6" y="207.0" font-size="10.5" fill="#6a6a6a">boolean</text><text x="674.3" y="207.0" font-size="9.5" font-style="italic" fill="#8a8a8a">Local Only</text><line x1="480" y1="215" x2="739.5" y2="215" stroke="#d2d2d2" stroke-width="0.8"/><text x="524.0" y="231.0" font-size="11" fill="#1a1a1a">is_deleted</text><text x="597.6" y="231.0" font-size="10.5" fill="#6a6a6a">boolean</text><text x="674.3" y="231.0" font-size="9.5" font-style="italic" fill="#8a8a8a">Local Only</text><line x1="480" y1="239" x2="739.5" y2="239" stroke="#d2d2d2" stroke-width="0.8"/><text x="524.0" y="255.0" font-size="11" fill="#1a1a1a">created_at</text><text x="597.6" y="255.0" font-size="10.5" fill="#6a6a6a">timestamptz</text><line x1="520.0" y1="119" x2="520.0" y2="263" stroke="#d2d2d2" stroke-width="0.8"/>
<rect x="480" y="315" width="284.1" height="298" rx="3" fill="#ffffff" stroke="#000" stroke-width="1.3"/><rect x="480" y="315" width="284.1" height="34" rx="3" fill="#e9e9e9" stroke="#000" stroke-width="1.3"/><rect x="480" y="346" width="284.1" height="3" fill="#e9e9e9"/><line x1="480" y1="349" x2="764.1" y2="349" stroke="#000" stroke-width="1.3"/><text x="622.1" y="337.0" text-anchor="middle" font-size="12.5" font-weight="bold" fill="#111">PRODUCTS</text><text x="502.0" y="365.0" text-anchor="middle" font-size="9" font-weight="bold" fill="#1a1a1a">PK</text><text x="524.0" y="365.0" font-size="11" fill="#1a1a1a">id</text><text x="622.2" y="365.0" font-size="10.5" fill="#6a6a6a">uuid</text><line x1="480" y1="373" x2="764.1" y2="373" stroke="#d2d2d2" stroke-width="0.8"/><text x="502.0" y="389.0" text-anchor="middle" font-size="9" fill="#555">FK</text><text x="524.0" y="389.0" font-size="11" fill="#1a1a1a">store_id</text><text x="622.2" y="389.0" font-size="10.5" fill="#6a6a6a">uuid</text><line x1="480" y1="397" x2="764.1" y2="397" stroke="#d2d2d2" stroke-width="0.8"/><text x="502.0" y="413.0" text-anchor="middle" font-size="9" fill="#555">FK</text><text x="524.0" y="413.0" font-size="11" fill="#1a1a1a">category_id</text><text x="622.2" y="413.0" font-size="10.5" fill="#6a6a6a">uuid</text><line x1="480" y1="421" x2="764.1" y2="421" stroke="#d2d2d2" stroke-width="0.8"/><text x="524.0" y="437.0" font-size="11" fill="#1a1a1a">name</text><text x="622.2" y="437.0" font-size="10.5" fill="#6a6a6a">varchar</text><line x1="480" y1="445" x2="764.1" y2="445" stroke="#d2d2d2" stroke-width="0.8"/><text x="524.0" y="461.0" font-size="11" fill="#1a1a1a">price</text><text x="622.2" y="461.0" font-size="10.5" fill="#6a6a6a">numeric</text><line x1="480" y1="469" x2="764.1" y2="469" stroke="#d2d2d2" stroke-width="0.8"/><text x="524.0" y="485.0" font-size="11" fill="#1a1a1a">stock_quantity</text><text x="622.2" y="485.0" font-size="10.5" fill="#6a6a6a">integer</text><line x1="480" y1="493" x2="764.1" y2="493" stroke="#d2d2d2" stroke-width="0.8"/><text x="524.0" y="509.0" font-size="11" fill="#1a1a1a">sku</text><text x="622.2" y="509.0" font-size="10.5" fill="#6a6a6a">varchar</text><line x1="480" y1="517" x2="764.1" y2="517" stroke="#d2d2d2" stroke-width="0.8"/><text x="524.0" y="533.0" font-size="11" fill="#1a1a1a">image_url</text><text x="622.2" y="533.0" font-size="10.5" fill="#6a6a6a">text</text><line x1="480" y1="541" x2="764.1" y2="541" stroke="#d2d2d2" stroke-width="0.8"/><text x="524.0" y="557.0" font-size="11" fill="#1a1a1a">is_synced</text><text x="622.2" y="557.0" font-size="10.5" fill="#6a6a6a">boolean</text><text x="698.9" y="557.0" font-size="9.5" font-style="italic" fill="#8a8a8a">Local Only</text><line x1="480" y1="565" x2="764.1" y2="565" stroke="#d2d2d2" stroke-width="0.8"/><text x="524.0" y="581.0" font-size="11" fill="#1a1a1a">is_deleted</text><text x="622.2" y="581.0" font-size="10.5" fill="#6a6a6a">boolean</text><text x="698.9" y="581.0" font-size="9.5" font-style="italic" fill="#8a8a8a">Local Only</text><line x1="480" y1="589" x2="764.1" y2="589" stroke="#d2d2d2" stroke-width="0.8"/><text x="524.0" y="605.0" font-size="11" fill="#1a1a1a">created_at</text><text x="622.2" y="605.0" font-size="10.5" fill="#6a6a6a">timestamptz</text><line x1="520.0" y1="349" x2="520.0" y2="613" stroke="#d2d2d2" stroke-width="0.8"/>
<rect x="920" y="145" width="337.3" height="335" rx="3" fill="#ffffff" stroke="#000" stroke-width="1.3"/><rect x="920" y="145" width="337.3" height="34" rx="3" fill="#e9e9e9" stroke="#000" stroke-width="1.3"/><rect x="920" y="176" width="337.3" height="3" fill="#e9e9e9"/><line x1="920" y1="179" x2="1257.3" y2="179" stroke="#000" stroke-width="1.3"/><text x="1088.7" y="167.0" text-anchor="middle" font-size="12.5" font-weight="bold" fill="#111">TRANSACTIONS</text><text x="942.0" y="195.0" text-anchor="middle" font-size="9" font-weight="bold" fill="#1a1a1a">PK</text><text x="964.0" y="195.0" font-size="11" fill="#1a1a1a">id</text><text x="1062.2" y="195.0" font-size="10.5" fill="#6a6a6a">uuid</text><line x1="920" y1="203" x2="1257.3" y2="203" stroke="#d2d2d2" stroke-width="0.8"/><text x="942.0" y="219.0" text-anchor="middle" font-size="9" fill="#555">FK</text><text x="964.0" y="219.0" font-size="11" fill="#1a1a1a">store_id</text><text x="1062.2" y="219.0" font-size="10.5" fill="#6a6a6a">uuid</text><line x1="920" y1="227" x2="1257.3" y2="227" stroke="#d2d2d2" stroke-width="0.8"/><text x="942.0" y="243.0" text-anchor="middle" font-size="9" fill="#555">FK</text><text x="964.0" y="243.0" font-size="11" fill="#1a1a1a">cashier_id</text><text x="1062.2" y="243.0" font-size="10.5" fill="#6a6a6a">uuid</text><line x1="920" y1="251" x2="1257.3" y2="251" stroke="#d2d2d2" stroke-width="0.8"/><text x="964.0" y="267.0" font-size="11" fill="#1a1a1a">total_amount</text><text x="1062.2" y="267.0" font-size="10.5" fill="#6a6a6a">numeric</text><line x1="920" y1="275" x2="1257.3" y2="275" stroke="#d2d2d2" stroke-width="0.8"/><text x="964.0" y="291.0" font-size="11" fill="#1a1a1a">discount_total</text><text x="1062.2" y="291.0" font-size="10.5" fill="#6a6a6a">numeric</text><line x1="920" y1="299" x2="1257.3" y2="299" stroke="#d2d2d2" stroke-width="0.8"/><text x="964.0" y="315.0" font-size="11" fill="#1a1a1a">payment_method</text><text x="1062.2" y="315.0" font-size="10.5" fill="#6a6a6a">varchar</text><text x="1138.9" y="315.0" font-size="9.5" font-style="italic" fill="#8a8a8a">Tunai, QRIS, Debit</text><line x1="920" y1="323" x2="1257.3" y2="323" stroke="#d2d2d2" stroke-width="0.8"/><text x="964.0" y="339.0" font-size="11" fill="#1a1a1a">cash_paid</text><text x="1062.2" y="339.0" font-size="10.5" fill="#6a6a6a">numeric</text><line x1="920" y1="347" x2="1257.3" y2="347" stroke="#d2d2d2" stroke-width="0.8"/><text x="964.0" y="363.0" font-size="11" fill="#1a1a1a">change_amount</text><text x="1062.2" y="363.0" font-size="10.5" fill="#6a6a6a">numeric</text><line x1="920" y1="371" x2="1257.3" y2="371" stroke="#d2d2d2" stroke-width="0.8"/><text x="964.0" y="393.5" font-size="11" fill="#1a1a1a">status</text><text x="1062.2" y="393.5" font-size="10.5" fill="#6a6a6a">varchar</text><text x="1138.9" y="386.5" font-size="9.5" font-style="italic" fill="#8a8a8a">Berhasil, Dibatalkan</text><text x="1138.9" y="398.5" font-size="9.5" font-style="italic" fill="#8a8a8a">Void</text><line x1="920" y1="408" x2="1257.3" y2="408" stroke="#d2d2d2" stroke-width="0.8"/><text x="964.0" y="424.0" font-size="11" fill="#1a1a1a">voucher_info</text><text x="1062.2" y="424.0" font-size="10.5" fill="#6a6a6a">jsonb</text><line x1="920" y1="432" x2="1257.3" y2="432" stroke="#d2d2d2" stroke-width="0.8"/><text x="964.0" y="448.0" font-size="11" fill="#1a1a1a">is_synced</text><text x="1062.2" y="448.0" font-size="10.5" fill="#6a6a6a">boolean</text><text x="1138.9" y="448.0" font-size="9.5" font-style="italic" fill="#8a8a8a">Local Only</text><line x1="920" y1="456" x2="1257.3" y2="456" stroke="#d2d2d2" stroke-width="0.8"/><text x="964.0" y="472.0" font-size="11" fill="#1a1a1a">created_at</text><text x="1062.2" y="472.0" font-size="10.5" fill="#6a6a6a">timestamptz</text><line x1="960.0" y1="179" x2="960.0" y2="480" stroke="#d2d2d2" stroke-width="0.8"/>
<rect x="920" y="545" width="195.4" height="202" rx="3" fill="#ffffff" stroke="#000" stroke-width="1.3"/><rect x="920" y="545" width="195.4" height="34" rx="3" fill="#e9e9e9" stroke="#000" stroke-width="1.3"/><rect x="920" y="576" width="195.4" height="3" fill="#e9e9e9"/><line x1="920" y1="579" x2="1115.4" y2="579" stroke="#000" stroke-width="1.3"/><text x="1017.7" y="567.0" text-anchor="middle" font-size="12.5" font-weight="bold" fill="#111">TRANSACTION_ITEMS</text><text x="942.0" y="595.0" text-anchor="middle" font-size="9" font-weight="bold" fill="#1a1a1a">PK</text><text x="964.0" y="595.0" font-size="11" fill="#1a1a1a">id</text><text x="1062.2" y="595.0" font-size="10.5" fill="#6a6a6a">uuid</text><line x1="920" y1="603" x2="1115.4" y2="603" stroke="#d2d2d2" stroke-width="0.8"/><text x="942.0" y="619.0" text-anchor="middle" font-size="9" fill="#555">FK</text><text x="964.0" y="619.0" font-size="11" fill="#1a1a1a">transaction_id</text><text x="1062.2" y="619.0" font-size="10.5" fill="#6a6a6a">uuid</text><line x1="920" y1="627" x2="1115.4" y2="627" stroke="#d2d2d2" stroke-width="0.8"/><text x="942.0" y="643.0" text-anchor="middle" font-size="9" fill="#555">FK</text><text x="964.0" y="643.0" font-size="11" fill="#1a1a1a">product_id</text><text x="1062.2" y="643.0" font-size="10.5" fill="#6a6a6a">uuid</text><line x1="920" y1="651" x2="1115.4" y2="651" stroke="#d2d2d2" stroke-width="0.8"/><text x="964.0" y="667.0" font-size="11" fill="#1a1a1a">product_name</text><text x="1062.2" y="667.0" font-size="10.5" fill="#6a6a6a">varchar</text><line x1="920" y1="675" x2="1115.4" y2="675" stroke="#d2d2d2" stroke-width="0.8"/><text x="964.0" y="691.0" font-size="11" fill="#1a1a1a">unit_price</text><text x="1062.2" y="691.0" font-size="10.5" fill="#6a6a6a">numeric</text><line x1="920" y1="699" x2="1115.4" y2="699" stroke="#d2d2d2" stroke-width="0.8"/><text x="964.0" y="715.0" font-size="11" fill="#1a1a1a">quantity</text><text x="1062.2" y="715.0" font-size="10.5" fill="#6a6a6a">integer</text><line x1="920" y1="723" x2="1115.4" y2="723" stroke="#d2d2d2" stroke-width="0.8"/><text x="964.0" y="739.0" font-size="11" fill="#1a1a1a">subtotal</text><text x="1062.2" y="739.0" font-size="10.5" fill="#6a6a6a">numeric</text><line x1="960.0" y1="579" x2="960.0" y2="747" stroke="#d2d2d2" stroke-width="0.8"/>
<rect x="480" y="655" width="338.2" height="239" rx="3" fill="#ffffff" stroke="#000" stroke-width="1.3"/><rect x="480" y="655" width="338.2" height="34" rx="3" fill="#e9e9e9" stroke="#000" stroke-width="1.3"/><rect x="480" y="686" width="338.2" height="3" fill="#e9e9e9"/><line x1="480" y1="689" x2="818.2" y2="689" stroke="#000" stroke-width="1.3"/><text x="649.1" y="677.0" text-anchor="middle" font-size="12.5" font-weight="bold" fill="#111">STOCK_HISTORIES</text><text x="502.0" y="705.0" text-anchor="middle" font-size="9" font-weight="bold" fill="#1a1a1a">PK</text><text x="524.0" y="705.0" font-size="11" fill="#1a1a1a">id</text><text x="628.4" y="705.0" font-size="10.5" fill="#6a6a6a">uuid</text><line x1="480" y1="713" x2="818.2" y2="713" stroke="#d2d2d2" stroke-width="0.8"/><text x="502.0" y="729.0" text-anchor="middle" font-size="9" fill="#555">FK</text><text x="524.0" y="729.0" font-size="11" fill="#1a1a1a">store_id</text><text x="628.4" y="729.0" font-size="10.5" fill="#6a6a6a">uuid</text><line x1="480" y1="737" x2="818.2" y2="737" stroke="#d2d2d2" stroke-width="0.8"/><text x="502.0" y="753.0" text-anchor="middle" font-size="9" fill="#555">FK</text><text x="524.0" y="753.0" font-size="11" fill="#1a1a1a">product_id</text><text x="628.4" y="753.0" font-size="10.5" fill="#6a6a6a">uuid</text><line x1="480" y1="761" x2="818.2" y2="761" stroke="#d2d2d2" stroke-width="0.8"/><text x="524.0" y="777.0" font-size="11" fill="#1a1a1a">change_quantity</text><text x="628.4" y="777.0" font-size="10.5" fill="#6a6a6a">integer</text><line x1="480" y1="785" x2="818.2" y2="785" stroke="#d2d2d2" stroke-width="0.8"/><text x="524.0" y="807.5" font-size="11" fill="#1a1a1a">type</text><text x="628.4" y="807.5" font-size="10.5" fill="#6a6a6a">varchar</text><text x="705.1" y="800.5" font-size="9.5" font-style="italic" fill="#8a8a8a">in, out, adjustment</text><text x="705.1" y="812.5" font-size="9.5" font-style="italic" fill="#8a8a8a">sale</text><line x1="480" y1="822" x2="818.2" y2="822" stroke="#d2d2d2" stroke-width="0.8"/><text x="524.0" y="838.0" font-size="11" fill="#1a1a1a">reason</text><text x="628.4" y="838.0" font-size="10.5" fill="#6a6a6a">varchar</text><line x1="480" y1="846" x2="818.2" y2="846" stroke="#d2d2d2" stroke-width="0.8"/><text x="524.0" y="862.0" font-size="11" fill="#1a1a1a">is_synced</text><text x="628.4" y="862.0" font-size="10.5" fill="#6a6a6a">boolean</text><text x="705.1" y="862.0" font-size="9.5" font-style="italic" fill="#8a8a8a">Local Only</text><line x1="480" y1="870" x2="818.2" y2="870" stroke="#d2d2d2" stroke-width="0.8"/><text x="524.0" y="886.0" font-size="11" fill="#1a1a1a">created_at</text><text x="628.4" y="886.0" font-size="10.5" fill="#6a6a6a">timestamptz</text><line x1="520.0" y1="689" x2="520.0" y2="894" stroke="#d2d2d2" stroke-width="0.8"/>
<rect x="40" y="575" width="323.3" height="215" rx="3" fill="#ffffff" stroke="#000" stroke-width="1.3"/><rect x="40" y="575" width="323.3" height="34" rx="3" fill="#e9e9e9" stroke="#000" stroke-width="1.3"/><rect x="40" y="606" width="323.3" height="3" fill="#e9e9e9"/><line x1="40" y1="609" x2="363.3" y2="609" stroke="#000" stroke-width="1.3"/><text x="201.7" y="597.0" text-anchor="middle" font-size="12.5" font-weight="bold" fill="#111">NOTIFICATIONS</text><text x="62.0" y="625.0" text-anchor="middle" font-size="9" font-weight="bold" fill="#1a1a1a">PK</text><text x="84.0" y="625.0" font-size="11" fill="#1a1a1a">id</text><text x="157.6" y="625.0" font-size="10.5" fill="#6a6a6a">uuid</text><line x1="40" y1="633" x2="363.3" y2="633" stroke="#d2d2d2" stroke-width="0.8"/><text x="62.0" y="649.0" text-anchor="middle" font-size="9" fill="#555">FK</text><text x="84.0" y="649.0" font-size="11" fill="#1a1a1a">store_id</text><text x="157.6" y="649.0" font-size="10.5" fill="#6a6a6a">uuid</text><line x1="40" y1="657" x2="363.3" y2="657" stroke="#d2d2d2" stroke-width="0.8"/><text x="84.0" y="673.0" font-size="11" fill="#1a1a1a">title</text><text x="157.6" y="673.0" font-size="10.5" fill="#6a6a6a">varchar</text><line x1="40" y1="681" x2="363.3" y2="681" stroke="#d2d2d2" stroke-width="0.8"/><text x="84.0" y="697.0" font-size="11" fill="#1a1a1a">message</text><text x="157.6" y="697.0" font-size="10.5" fill="#6a6a6a">text</text><line x1="40" y1="705" x2="363.3" y2="705" stroke="#d2d2d2" stroke-width="0.8"/><text x="84.0" y="727.5" font-size="11" fill="#1a1a1a">type</text><text x="157.6" y="727.5" font-size="10.5" fill="#6a6a6a">varchar</text><text x="234.3" y="720.5" font-size="9.5" font-style="italic" fill="#8a8a8a">danger, warning, promo</text><text x="234.3" y="732.5" font-size="9.5" font-style="italic" fill="#8a8a8a">info, success</text><line x1="40" y1="742" x2="363.3" y2="742" stroke="#d2d2d2" stroke-width="0.8"/><text x="84.0" y="758.0" font-size="11" fill="#1a1a1a">is_read</text><text x="157.6" y="758.0" font-size="10.5" fill="#6a6a6a">boolean</text><line x1="40" y1="766" x2="363.3" y2="766" stroke="#d2d2d2" stroke-width="0.8"/><text x="84.0" y="782.0" font-size="11" fill="#1a1a1a">created_at</text><text x="157.6" y="782.0" font-size="10.5" fill="#6a6a6a">timestamptz</text><line x1="80.0" y1="609" x2="80.0" y2="790" stroke="#d2d2d2" stroke-width="0.8"/>
<line x1="143.1" y1="308.0" x2="131.1" y2="308.0" stroke="#000" stroke-width="1.3"/><line x1="143.1" y1="303.0" x2="131.1" y2="303.0" stroke="#000" stroke-width="1.3"/>
<line x1="188.4" y1="277.0" x2="188.4" y2="263.0" stroke="#000" stroke-width="1.3"/><line x1="188.4" y1="277.0" x2="181.4" y2="263.0" stroke="#000" stroke-width="1.3"/><line x1="188.4" y1="277.0" x2="195.4" y2="263.0" stroke="#000" stroke-width="1.3"/><circle cx="188.4" cy="282.0" r="4" fill="#fff" stroke="#000" stroke-width="1.3"/>
<text x="163.0" y="300.0" text-anchor="middle" font-size="9.5" font-style="italic" fill="#777">has</text>
<line x1="131.1" y1="524.0" x2="143.1" y2="524.0" stroke="#000" stroke-width="1.3"/><line x1="131.1" y1="529.0" x2="143.1" y2="529.0" stroke="#000" stroke-width="1.3"/>
<line x1="201.7" y1="561.0" x2="201.7" y2="575.0" stroke="#000" stroke-width="1.3"/><line x1="201.7" y1="561.0" x2="208.7" y2="575.0" stroke="#000" stroke-width="1.3"/><line x1="201.7" y1="561.0" x2="194.7" y2="575.0" stroke="#000" stroke-width="1.3"/><circle cx="201.7" cy="556.0" r="4" fill="#fff" stroke="#000" stroke-width="1.3"/>
<text x="172.0" y="532.0" text-anchor="middle" font-size="9.5" font-style="italic" fill="#777">broadcasts</text>
<line x1="241.3" y1="386.0" x2="241.3" y2="374.0" stroke="#000" stroke-width="1.3"/><line x1="246.3" y1="386.0" x2="246.3" y2="374.0" stroke="#000" stroke-width="1.3"/>
<line x1="466.0" y1="174.0" x2="480.0" y2="174.0" stroke="#000" stroke-width="1.3"/><line x1="466.0" y1="174.0" x2="480.0" y2="167.0" stroke="#000" stroke-width="1.3"/><line x1="466.0" y1="174.0" x2="480.0" y2="181.0" stroke="#000" stroke-width="1.3"/><circle cx="461.0" cy="174.0" r="4" fill="#fff" stroke="#000" stroke-width="1.3"/>
<text x="438.0" y="300.0" text-anchor="middle" font-size="9.5" font-style="italic" fill="#777">defines</text>
<line x1="241.3" y1="470.0" x2="241.3" y2="458.0" stroke="#000" stroke-width="1.3"/><line x1="246.3" y1="470.0" x2="246.3" y2="458.0" stroke="#000" stroke-width="1.3"/>
<line x1="466.0" y1="464.0" x2="480.0" y2="464.0" stroke="#000" stroke-width="1.3"/><line x1="466.0" y1="464.0" x2="480.0" y2="457.0" stroke="#000" stroke-width="1.3"/><line x1="466.0" y1="464.0" x2="480.0" y2="471.0" stroke="#000" stroke-width="1.3"/><circle cx="461.0" cy="464.0" r="4" fill="#fff" stroke="#000" stroke-width="1.3"/>
<text x="345.0" y="458.0" text-anchor="middle" font-size="9.5" font-style="italic" fill="#777">stocks</text>
<line x1="241.3" y1="498.0" x2="241.3" y2="486.0" stroke="#000" stroke-width="1.3"/><line x1="246.3" y1="498.0" x2="246.3" y2="486.0" stroke="#000" stroke-width="1.3"/>
<line x1="466.0" y1="774.5" x2="480.0" y2="774.5" stroke="#000" stroke-width="1.3"/><line x1="466.0" y1="774.5" x2="480.0" y2="767.5" stroke="#000" stroke-width="1.3"/><line x1="466.0" y1="774.5" x2="480.0" y2="781.5" stroke="#000" stroke-width="1.3"/><circle cx="461.0" cy="774.5" r="4" fill="#fff" stroke="#000" stroke-width="1.3"/>
<text x="438.0" y="690.0" text-anchor="middle" font-size="9.5" font-style="italic" fill="#777">tracks</text>
<line x1="241.3" y1="356.0" x2="241.3" y2="344.0" stroke="#000" stroke-width="1.3"/><line x1="246.3" y1="356.0" x2="246.3" y2="344.0" stroke="#000" stroke-width="1.3"/>
<line x1="1088.7" y1="131.0" x2="1088.7" y2="145.0" stroke="#000" stroke-width="1.3"/><line x1="1088.7" y1="131.0" x2="1095.7" y2="145.0" stroke="#000" stroke-width="1.3"/><line x1="1088.7" y1="131.0" x2="1081.7" y2="145.0" stroke="#000" stroke-width="1.3"/><circle cx="1088.7" cy="126.0" r="4" fill="#fff" stroke="#000" stroke-width="1.3"/>
<text x="720.0" y="49.0" text-anchor="middle" font-size="9.5" font-style="italic" fill="#777">records</text>
<line x1="603.7" y1="270.0" x2="615.7" y2="270.0" stroke="#000" stroke-width="1.3"/><line x1="603.7" y1="275.0" x2="615.7" y2="275.0" stroke="#000" stroke-width="1.3"/>
<line x1="622.1" y1="301.0" x2="622.1" y2="315.0" stroke="#000" stroke-width="1.3"/><line x1="622.1" y1="301.0" x2="629.1" y2="315.0" stroke="#000" stroke-width="1.3"/><line x1="622.1" y1="301.0" x2="615.1" y2="315.0" stroke="#000" stroke-width="1.3"/><circle cx="622.1" cy="296.0" r="4" fill="#fff" stroke="#000" stroke-width="1.3"/>
<text x="635.0" y="292.0" text-anchor="middle" font-size="9.5" font-style="italic" fill="#777">classifies</text>
<line x1="616.1" y1="620.0" x2="628.1" y2="620.0" stroke="#000" stroke-width="1.3"/><line x1="616.1" y1="625.0" x2="628.1" y2="625.0" stroke="#000" stroke-width="1.3"/>
<line x1="649.1" y1="641.0" x2="649.1" y2="655.0" stroke="#000" stroke-width="1.3"/><line x1="649.1" y1="641.0" x2="656.1" y2="655.0" stroke="#000" stroke-width="1.3"/><line x1="649.1" y1="641.0" x2="642.1" y2="655.0" stroke="#000" stroke-width="1.3"/><circle cx="649.1" cy="636.0" r="4" fill="#fff" stroke="#000" stroke-width="1.3"/>
<text x="665.0" y="636.0" text-anchor="middle" font-size="9.5" font-style="italic" fill="#777">logs_change</text>
<line x1="771.1" y1="526.0" x2="771.1" y2="514.0" stroke="#000" stroke-width="1.3"/><line x1="776.1" y1="526.0" x2="776.1" y2="514.0" stroke="#000" stroke-width="1.3"/>
<line x1="906.0" y1="620.0" x2="920.0" y2="620.0" stroke="#000" stroke-width="1.3"/><line x1="906.0" y1="620.0" x2="920.0" y2="613.0" stroke="#000" stroke-width="1.3"/><line x1="906.0" y1="620.0" x2="920.0" y2="627.0" stroke="#000" stroke-width="1.3"/><circle cx="901.0" cy="620.0" r="4" fill="#fff" stroke="#000" stroke-width="1.3"/>
<text x="881.0" y="566.0" text-anchor="middle" font-size="9.5" font-style="italic" fill="#777">included_in</text>
<line x1="1082.7" y1="487.0" x2="1094.7" y2="487.0" stroke="#000" stroke-width="1.3"/><line x1="1082.7" y1="492.0" x2="1094.7" y2="492.0" stroke="#000" stroke-width="1.3"/>
<line x1="1017.7" y1="531.0" x2="1017.7" y2="545.0" stroke="#000" stroke-width="1.3"/><line x1="1017.7" y1="531.0" x2="1024.7" y2="545.0" stroke="#000" stroke-width="1.3"/><line x1="1017.7" y1="531.0" x2="1010.7" y2="545.0" stroke="#000" stroke-width="1.3"/><circle cx="1017.7" cy="526.0" r="4" fill="#fff" stroke="#000" stroke-width="1.3"/>
<text x="1028.0" y="494.0" text-anchor="middle" font-size="9.5" font-style="italic" fill="#777">contains</text>
<rect x="40" y="812" width="452" height="118" rx="4" fill="#fcfcfc" stroke="#000" stroke-width="1.1"/><text x="52" y="834" font-size="12.5" font-weight="bold" fill="#111">Keterangan / Legend</text><line x1="58" y1="858" x2="110" y2="858" stroke="#000" stroke-width="1.2"/><line x1="103" y1="852" x2="103" y2="864" stroke="#000" stroke-width="1.3"/><line x1="98" y1="852" x2="98" y2="864" stroke="#000" stroke-width="1.3"/><text x="122" y="862" font-size="10.5" fill="#333">Satu &amp; hanya satu (one)</text><line x1="58" y1="884" x2="98" y2="884" stroke="#000" stroke-width="1.2"/><circle cx="102" cy="884" r="4" fill="#fff" stroke="#000" stroke-width="1.3"/><line x1="96" y1="884" x2="110" y2="884" stroke="#000" stroke-width="1.3"/><line x1="96" y1="884" x2="110" y2="877" stroke="#000" stroke-width="1.3"/><line x1="96" y1="884" x2="110" y2="891" stroke="#000" stroke-width="1.3"/><text x="122" y="888" font-size="10.5" fill="#333">Nol atau banyak (zero / many)</text><text x="290" y="862" font-size="10.5" fill="#333"><tspan font-weight="bold">PK</tspan> Primary Key &#160; <tspan font-weight="bold">FK</tspan> Foreign Key</text><text x="290" y="888" font-size="9.8" font-style="italic" fill="#8a8a8a">teks miring = enum / keterangan kolom</text><text x="58" y="918" font-size="9.8" font-style="italic" fill="#8a8a8a">"Local Only" = kolom khusus sinkronisasi offline-first (tidak dikirim ke server).</text>
</svg>